<?xml version="1.0" standalone="no"?>
 <!DOCTYPE svg PUBLIC "-//W3C//DTD SVG 1.1//EN" 
 "http://www.w3.org/Graphics/SVG/1.1/DTD/svg11.dtd"> 
<svg xmlns="http://www.w3.org/2000/svg" version="1.1" 
    width="7.49808cm" height="4.07162cm" viewBox="0 0 29520 16030 ">
<title>SVG Picture created as DAS-brd.svg date 2014/08/02 17:48:46 </title>
  <desc>Picture generated by PCBNEW </desc>
<g style="fill:#000000; fill-opacity:1;stroke:#000000; stroke-opacity:1;
stroke-linecap:round; stroke-linejoin:round; "
 transform="translate(0 0) scale(1 1)">
</g>
<g style="fill:#C1C100; fill-opacity:0.0; 
stroke:#C1C100; stroke-width:19; stroke-opacity:1; 
stroke-linecap:round; stroke-linejoin:round;">
<path d="M109 8183
L306 8380
" />
<path d="M306 8380
L2865 8380
" />
<path d="M2865 9168
L306 9168
" />
<path d="M306 9168
L109 9364
" />
<path d="M109 8183
L109 4247
" />
<path d="M109 4247
L306 3991
" />
<path d="M306 3991
L3652 3991
" />
<path d="M109 9364
L109 11727
" />
<path d="M109 11727
L306 11983
" />
<path d="M306 11983
L3652 11983
" />
<path d="M4046 12376
L4046 14679
" />
<path d="M5227 113
L26092 113
" />
<path d="M5227 15861
L26092 15861
" />
<path d="M27274 14679
L27274 1295
" />
<path d="M4046 3657
L4046 1295
" />
<path d="M2865.5 9168.64 A394 394 0.0 0 0 2865.5 8380.64 " />
<path d="M4046.56 12377 A363.411 363.411 0.0 0 0 3652.5 11983.6 " />
<path d="M4045.52 14679.4 A1091.14 1091.14 0.0 0 0 5227.5 15861.6 " />
<path d="M5227.53 114.646 A1090.15 1090.15 0.0 0 0 4046.5 1295.64 " />
<path d="M26092.3 15861.6 A1091.14 1091.14 0.0 0 0 27274.5 14679.6 " />
<path d="M27274.5 1295.84 A1091.14 1091.14 0.0 0 0 26092.5 113.644 " />
<path d="M3652.95 3991.87 A337.006 337.006 0.0 0 0 4046.5 3657.64 " />
</g>
<g style="fill:#840000; fill-opacity:0.0; 
stroke:#840000; stroke-width:39.3701; stroke-opacity:1; 
stroke-linecap:round; stroke-linejoin:round;">
</g>
<g style="fill:#840000; fill-opacity:1.0; 
stroke:#840000; stroke-width:39.3701; stroke-opacity:1; 
stroke-linecap:round; stroke-linejoin:round;">
<polyline style="fill-rule:evenodd;"
points="6921,13377
6921,12747
7393,12747
7393,13377
6921,13377
" /> 
<polyline style="fill-rule:evenodd;"
points="8299,13377
8299,12747
8771,12747
8771,13377
8299,13377
" /> 
<polyline style="fill-rule:evenodd;"
points="23159,11988
23159,12342
22845,12342
22845,11988
23159,11988
" /> 
<polyline style="fill-rule:evenodd;"
points="23751,11988
23751,12342
23437,12342
23437,11988
23751,11988
" /> 
<polyline style="fill-rule:evenodd;"
points="23492,5755
23492,6109
23178,6109
23178,5755
23492,5755
" /> 
<polyline style="fill-rule:evenodd;"
points="24084,5755
24084,6109
23770,6109
23770,5755
24084,5755
" /> 
<polyline style="fill-rule:evenodd;"
points="18587,11529
18587,11883
18273,11883
18273,11529
18587,11529
" /> 
<polyline style="fill-rule:evenodd;"
points="19179,11529
19179,11883
18865,11883
18865,11529
19179,11529
" /> 
<polyline style="fill-rule:evenodd;"
points="18669,5383
18669,5737
18355,5737
18355,5383
18669,5383
" /> 
<polyline style="fill-rule:evenodd;"
points="19261,5383
19261,5737
18947,5737
18947,5383
19261,5383
" /> 
<polyline style="fill-rule:evenodd;"
points="18903,12623
19257,12623
19257,12937
18903,12937
18903,12623
" /> 
<polyline style="fill-rule:evenodd;"
points="18903,12031
19257,12031
19257,12345
18903,12345
18903,12031
" /> 
<polyline style="fill-rule:evenodd;"
points="18915,6471
19269,6471
19269,6785
18915,6785
18915,6471
" /> 
<polyline style="fill-rule:evenodd;"
points="18915,5879
19269,5879
19269,6193
18915,6193
18915,5879
" /> 
<polyline style="fill-rule:evenodd;"
points="19041,3557
19041,3203
19355,3203
19355,3557
19041,3557
" /> 
<polyline style="fill-rule:evenodd;"
points="18449,3557
18449,3203
18763,3203
18763,3557
18449,3557
" /> 
<polyline style="fill-rule:evenodd;"
points="18973,9417
19327,9417
19327,9731
18973,9731
18973,9417
" /> 
<polyline style="fill-rule:evenodd;"
points="18973,8825
19327,8825
19327,9139
18973,9139
18973,8825
" /> 
<polyline style="fill-rule:evenodd;"
points="8478,14196
8478,14628
8202,14628
8202,14196
8478,14196
" /> 
<polyline style="fill-rule:evenodd;"
points="7690,14196
7690,14628
7414,14628
7414,14196
7690,14196
" /> 
<polyline style="fill-rule:evenodd;"
points="8528,8646
8528,9078
8252,9078
8252,8646
8528,8646
" /> 
<polyline style="fill-rule:evenodd;"
points="7740,8646
7740,9078
7464,9078
7464,8646
7740,8646
" /> 
<polyline style="fill-rule:evenodd;"
points="24991,9867
25751,9867
25751,10507
24991,10507
24991,9867
" /> 
</g>
<g style="fill:#840000; fill-opacity:1.0; 
stroke:#840000; stroke-width:680; stroke-opacity:1; 
stroke-linecap:round; stroke-linejoin:round;">
</g>
<g style="fill:#840000; fill-opacity:0.0; 
stroke:#840000; stroke-width:680; stroke-opacity:1; 
stroke-linecap:round; stroke-linejoin:round;">
<path d="M25431 11187
L25311 11187
" />
<path d="M25431 12187
L25311 12187
" />
<path d="M25431 13187
L25311 13187
" />
</g>
<g style="fill:#840000; fill-opacity:0.0; 
stroke:#840000; stroke-width:39.3701; stroke-opacity:1; 
stroke-linecap:round; stroke-linejoin:round;">
</g>
<g style="fill:#840000; fill-opacity:1.0; 
stroke:#840000; stroke-width:39.3701; stroke-opacity:1; 
stroke-linecap:round; stroke-linejoin:round;">
<polyline style="fill-rule:evenodd;"
points="24941,2967
25701,2967
25701,3607
24941,3607
24941,2967
" /> 
</g>
<g style="fill:#840000; fill-opacity:1.0; 
stroke:#840000; stroke-width:680; stroke-opacity:1; 
stroke-linecap:round; stroke-linejoin:round;">
</g>
<g style="fill:#840000; fill-opacity:0.0; 
stroke:#840000; stroke-width:680; stroke-opacity:1; 
stroke-linecap:round; stroke-linejoin:round;">
<path d="M25381 4287
L25261 4287
" />
<path d="M25381 5287
L25261 5287
" />
<path d="M25381 6287
L25261 6287
" />
</g>
<g style="fill:#840000; fill-opacity:0.0; 
stroke:#840000; stroke-width:39.3701; stroke-opacity:1; 
stroke-linecap:round; stroke-linejoin:round;">
</g>
<g style="fill:#840000; fill-opacity:1.0; 
stroke:#840000; stroke-width:39.3701; stroke-opacity:1; 
stroke-linecap:round; stroke-linejoin:round;">
<polyline style="fill-rule:evenodd;"
points="21341,2157
21341,1567
22483,1567
22483,2157
21341,2157
" /> 
<polyline style="fill-rule:evenodd;"
points="19609,2157
19609,1567
20751,1567
20751,2157
19609,2157
" /> 
<polyline style="fill-rule:evenodd;"
points="21291,14682
21291,14092
22433,14092
22433,14682
21291,14682
" /> 
<polyline style="fill-rule:evenodd;"
points="19559,14682
19559,14092
20701,14092
20701,14682
19559,14682
" /> 
<polyline style="fill-rule:evenodd;"
points="17451,10414
17451,10966
16723,10966
16723,10414
17451,10414
" /> 
<polyline style="fill-rule:evenodd;"
points="18521,10414
18521,10966
17793,10966
17793,10414
18521,10414
" /> 
<polyline style="fill-rule:evenodd;"
points="17473,4281
17473,4833
16745,4833
16745,4281
17473,4281
" /> 
<polyline style="fill-rule:evenodd;"
points="18543,4281
18543,4833
17815,4833
17815,4281
18543,4281
" /> 
<circle cx="13607.5" cy="2112.64" r="373.815" /> 
<circle cx="14985.5" cy="2112.64" r="373.815" /> 
<polyline style="fill-rule:evenodd;"
points="680,4365
680,4129
2294,4129
2294,4365
680,4365
" /> 
<polyline style="fill-rule:evenodd;"
points="680,4759
680,4523
2294,4523
2294,4759
680,4759
" /> 
<polyline style="fill-rule:evenodd;"
points="680,5153
680,4917
2294,4917
2294,5153
680,5153
" /> 
<polyline style="fill-rule:evenodd;"
points="680,5546
680,5310
2294,5310
2294,5546
680,5546
" /> 
<polyline style="fill-rule:evenodd;"
points="680,5940
680,5704
2294,5704
2294,5940
680,5940
" /> 
<polyline style="fill-rule:evenodd;"
points="680,6334
680,6098
2294,6098
2294,6334
680,6334
" /> 
<polyline style="fill-rule:evenodd;"
points="680,6728
680,6492
2294,6492
2294,6728
680,6728
" /> 
<polyline style="fill-rule:evenodd;"
points="680,7121
680,6885
2294,6885
2294,7121
680,7121
" /> 
<polyline style="fill-rule:evenodd;"
points="680,7515
680,7279
2294,7279
2294,7515
680,7515
" /> 
<polyline style="fill-rule:evenodd;"
points="680,7909
680,7673
2294,7673
2294,7909
680,7909
" /> 
<polyline style="fill-rule:evenodd;"
points="680,8301
680,8065
2294,8065
2294,8301
680,8301
" /> 
<polyline style="fill-rule:evenodd;"
points="680,9482
680,9246
2294,9246
2294,9482
680,9482
" /> 
<polyline style="fill-rule:evenodd;"
points="680,9876
680,9640
2294,9640
2294,9876
680,9876
" /> 
<polyline style="fill-rule:evenodd;"
points="680,10270
680,10034
2294,10034
2294,10270
680,10270
" /> 
<polyline style="fill-rule:evenodd;"
points="680,10664
680,10428
2294,10428
2294,10664
680,10664
" /> 
<polyline style="fill-rule:evenodd;"
points="680,11057
680,10821
2294,10821
2294,11057
680,11057
" /> 
<polyline style="fill-rule:evenodd;"
points="680,11451
680,11215
2294,11215
2294,11451
680,11451
" /> 
<polyline style="fill-rule:evenodd;"
points="680,11845
680,11609
2294,11609
2294,11845
680,11845
" /> 
<circle cx="5227.5" cy="14679.6" r="1042.81" /> 
<circle cx="26092.5" cy="14679.6" r="1042.81" /> 
<circle cx="5227.5" cy="1295.64" r="1042.81" /> 
<circle cx="26092.5" cy="1295.64" r="1042.81" /> 
<polyline style="fill-rule:evenodd;"
points="6971,12327
6971,11697
7443,11697
7443,12327
6971,12327
" /> 
<polyline style="fill-rule:evenodd;"
points="8349,12327
8349,11697
8821,11697
8821,12327
8349,12327
" /> 
<polyline style="fill-rule:evenodd;"
points="6971,11277
6971,10647
7443,10647
7443,11277
6971,11277
" /> 
<polyline style="fill-rule:evenodd;"
points="8349,11277
8349,10647
8821,10647
8821,11277
8349,11277
" /> 
<polyline style="fill-rule:evenodd;"
points="23367,7828
23367,7396
23799,7396
23799,7828
23367,7828
" /> 
<polyline style="fill-rule:evenodd;"
points="24193,7828
24193,7396
24625,7396
24625,7828
24193,7828
" /> 
<polyline style="fill-rule:evenodd;"
points="7741,757
8251,757
8251,1267
7741,1267
7741,757
" /> 
<circle cx="7996.5" cy="2012.64" r="255.315" /> 
<circle cx="7996.5" cy="3012.64" r="255.315" /> 
<polyline style="fill-rule:evenodd;"
points="8841,757
9351,757
9351,1267
8841,1267
8841,757
" /> 
<circle cx="9096.5" cy="2012.64" r="255.315" /> 
<circle cx="9096.5" cy="3012.64" r="255.315" /> 
<polyline style="fill-rule:evenodd;"
points="9941,757
10451,757
10451,1267
9941,1267
9941,757
" /> 
<circle cx="10196.5" cy="2012.64" r="255.315" /> 
<circle cx="10196.5" cy="3012.64" r="255.315" /> 
<polyline style="fill-rule:evenodd;"
points="11041,757
11551,757
11551,1267
11041,1267
11041,757
" /> 
<circle cx="11296.5" cy="2012.64" r="255.315" /> 
<circle cx="11296.5" cy="3012.64" r="255.315" /> 
<polyline style="fill-rule:evenodd;"
points="17564,9038
17564,8606
17840,8606
17840,9038
17564,9038
" /> 
<polyline style="fill-rule:evenodd;"
points="18352,9038
18352,8606
18628,8606
18628,9038
18352,9038
" /> 
<polyline style="fill-rule:evenodd;"
points="17544,7853
17544,7421
17820,7421
17820,7853
17544,7853
" /> 
<polyline style="fill-rule:evenodd;"
points="18332,7853
18332,7421
18608,7421
18608,7853
18332,7853
" /> 
<polyline style="fill-rule:evenodd;"
points="24966,7357
25726,7357
25726,8117
24966,8117
24966,7357
" /> 
</g>
<g style="fill:#840000; fill-opacity:1.0; 
stroke:#840000; stroke-width:800; stroke-opacity:1; 
stroke-linecap:round; stroke-linejoin:round;">
</g>
<g style="fill:#840000; fill-opacity:0.0; 
stroke:#840000; stroke-width:800; stroke-opacity:1; 
stroke-linecap:round; stroke-linejoin:round;">
<path d="M25346 8737
L25346 8737
" />
</g>
<g style="fill:#840000; fill-opacity:0.0; 
stroke:#840000; stroke-width:39.3701; stroke-opacity:1; 
stroke-linecap:round; stroke-linejoin:round;">
</g>
<g style="fill:#840000; fill-opacity:1.0; 
stroke:#840000; stroke-width:39.3701; stroke-opacity:1; 
stroke-linecap:round; stroke-linejoin:round;">
<polyline style="fill-rule:evenodd;"
points="6971,10227
6971,9597
7443,9597
7443,10227
6971,10227
" /> 
<polyline style="fill-rule:evenodd;"
points="8349,10227
8349,9597
8821,9597
8821,10227
8349,10227
" /> 
<polyline style="fill-rule:evenodd;"
points="19901,8842
19491,8842
19491,8682
19901,8682
19901,8842
" /> 
<polyline style="fill-rule:evenodd;"
points="19901,8342
19491,8342
19491,8182
19901,8182
19901,8342
" /> 
<polyline style="fill-rule:evenodd;"
points="19901,7842
19491,7842
19491,7682
19901,7682
19901,7842
" /> 
<polyline style="fill-rule:evenodd;"
points="19901,7342
19491,7342
19491,7182
19901,7182
19901,7342
" /> 
<polyline style="fill-rule:evenodd;"
points="22401,7342
21991,7342
21991,7182
22401,7182
22401,7342
" /> 
<polyline style="fill-rule:evenodd;"
points="22401,7842
21991,7842
21991,7682
22401,7682
22401,7842
" /> 
<polyline style="fill-rule:evenodd;"
points="22401,8342
21991,8342
21991,8182
22401,8182
22401,8342
" /> 
<polyline style="fill-rule:evenodd;"
points="22401,8842
21991,8842
21991,8682
22401,8682
22401,8842
" /> 
<polyline style="fill-rule:evenodd;"
points="8173,4191
7819,4191
7819,3877
8173,3877
8173,4191
" /> 
<polyline style="fill-rule:evenodd;"
points="8173,4783
7819,4783
7819,4469
8173,4469
8173,4783
" /> 
<polyline style="fill-rule:evenodd;"
points="11961,6179
11961,5273
12393,5273
12393,6179
11961,6179
" /> 
<polyline style="fill-rule:evenodd;"
points="13379,6179
13379,5273
13811,5273
13811,6179
13379,6179
" /> 
<polyline style="fill-rule:evenodd;"
points="11145,5275
11145,6181
10713,6181
10713,5275
11145,5275
" /> 
<polyline style="fill-rule:evenodd;"
points="9727,5275
9727,6181
9295,6181
9295,5275
9727,5275
" /> 
<polyline style="fill-rule:evenodd;"
points="9791,9406
9791,8974
10067,8974
10067,9406
9791,9406
" /> 
<polyline style="fill-rule:evenodd;"
points="10579,9406
10579,8974
10855,8974
10855,9406
10579,9406
" /> 
<polyline style="fill-rule:evenodd;"
points="22001,6566
22493,6566
22493,6685
22001,6685
22001,6566
" /> 
<polyline style="fill-rule:evenodd;"
points="22001,6311
22493,6311
22493,6429
22001,6429
22001,6311
" /> 
<polyline style="fill-rule:evenodd;"
points="22001,6055
22493,6055
22493,6173
22001,6173
22001,6055
" /> 
<polyline style="fill-rule:evenodd;"
points="22001,5799
22493,5799
22493,5917
22001,5917
22001,5799
" /> 
<polyline style="fill-rule:evenodd;"
points="22001,5543
22493,5543
22493,5661
22001,5661
22001,5543
" /> 
<polyline style="fill-rule:evenodd;"
points="22001,5287
22493,5287
22493,5405
22001,5405
22001,5287
" /> 
<polyline style="fill-rule:evenodd;"
points="22001,5031
22493,5031
22493,5149
22001,5149
22001,5031
" /> 
<polyline style="fill-rule:evenodd;"
points="22001,4775
22493,4775
22493,4893
22001,4893
22001,4775
" /> 
<polyline style="fill-rule:evenodd;"
points="22001,4519
22493,4519
22493,4637
22001,4637
22001,4519
" /> 
<polyline style="fill-rule:evenodd;"
points="22001,4263
22493,4263
22493,4381
22001,4381
22001,4263
" /> 
<polyline style="fill-rule:evenodd;"
points="22001,4007
22493,4007
22493,4126
22001,4126
22001,4007
" /> 
<polyline style="fill-rule:evenodd;"
points="22001,3752
22493,3752
22493,3870
22001,3870
22001,3752
" /> 
<polyline style="fill-rule:evenodd;"
points="22001,3496
22493,3496
22493,3614
22001,3614
22001,3496
" /> 
<polyline style="fill-rule:evenodd;"
points="22001,3240
22493,3240
22493,3358
22001,3358
22001,3240
" /> 
<polyline style="fill-rule:evenodd;"
points="19599,3240
20091,3240
20091,3358
19599,3358
19599,3240
" /> 
<polyline style="fill-rule:evenodd;"
points="19599,3496
20091,3496
20091,3614
19599,3614
19599,3496
" /> 
<polyline style="fill-rule:evenodd;"
points="19599,3752
20091,3752
20091,3870
19599,3870
19599,3752
" /> 
<polyline style="fill-rule:evenodd;"
points="19599,4007
20091,4007
20091,4126
19599,4126
19599,4007
" /> 
<polyline style="fill-rule:evenodd;"
points="19599,4263
20091,4263
20091,4381
19599,4381
19599,4263
" /> 
<polyline style="fill-rule:evenodd;"
points="19599,4519
20091,4519
20091,4637
19599,4637
19599,4519
" /> 
<polyline style="fill-rule:evenodd;"
points="19599,4775
20091,4775
20091,4893
19599,4893
19599,4775
" /> 
<polyline style="fill-rule:evenodd;"
points="19599,5031
20091,5031
20091,5149
19599,5149
19599,5031
" /> 
<polyline style="fill-rule:evenodd;"
points="19599,5287
20091,5287
20091,5405
19599,5405
19599,5287
" /> 
<polyline style="fill-rule:evenodd;"
points="19599,5543
20091,5543
20091,5661
19599,5661
19599,5543
" /> 
<polyline style="fill-rule:evenodd;"
points="19599,5799
20091,5799
20091,5917
19599,5917
19599,5799
" /> 
<polyline style="fill-rule:evenodd;"
points="19599,6055
20091,6055
20091,6173
19599,6173
19599,6055
" /> 
<polyline style="fill-rule:evenodd;"
points="19599,6311
20091,6311
20091,6429
19599,6429
19599,6311
" /> 
<polyline style="fill-rule:evenodd;"
points="19599,6566
20091,6566
20091,6685
19599,6685
19599,6566
" /> 
<polyline style="fill-rule:evenodd;"
points="20583,3850
21509,3850
21509,6074
20583,6074
20583,3850
" /> 
<circle cx="21297.9" cy="4709.18" r="78.7402" /> 
<circle cx="21297.9" cy="5220.99" r="78.7402" /> 
<circle cx="20786.1" cy="4709.18" r="78.7402" /> 
<circle cx="20786.1" cy="5220.99" r="78.7402" /> 
<circle cx="21042" cy="4965.09" r="78.7402" /> 
<polyline style="fill-rule:evenodd;"
points="22001,12716
22493,12716
22493,12835
22001,12835
22001,12716
" /> 
<polyline style="fill-rule:evenodd;"
points="22001,12461
22493,12461
22493,12579
22001,12579
22001,12461
" /> 
<polyline style="fill-rule:evenodd;"
points="22001,12205
22493,12205
22493,12323
22001,12323
22001,12205
" /> 
<polyline style="fill-rule:evenodd;"
points="22001,11949
22493,11949
22493,12067
22001,12067
22001,11949
" /> 
<polyline style="fill-rule:evenodd;"
points="22001,11693
22493,11693
22493,11811
22001,11811
22001,11693
" /> 
<polyline style="fill-rule:evenodd;"
points="22001,11437
22493,11437
22493,11555
22001,11555
22001,11437
" /> 
<polyline style="fill-rule:evenodd;"
points="22001,11181
22493,11181
22493,11299
22001,11299
22001,11181
" /> 
<polyline style="fill-rule:evenodd;"
points="22001,10925
22493,10925
22493,11043
22001,11043
22001,10925
" /> 
<polyline style="fill-rule:evenodd;"
points="22001,10669
22493,10669
22493,10787
22001,10787
22001,10669
" /> 
<polyline style="fill-rule:evenodd;"
points="22001,10413
22493,10413
22493,10531
22001,10531
22001,10413
" /> 
<polyline style="fill-rule:evenodd;"
points="22001,10157
22493,10157
22493,10276
22001,10276
22001,10157
" /> 
<polyline style="fill-rule:evenodd;"
points="22001,9902
22493,9902
22493,10020
22001,10020
22001,9902
" /> 
<polyline style="fill-rule:evenodd;"
points="22001,9646
22493,9646
22493,9764
22001,9764
22001,9646
" /> 
<polyline style="fill-rule:evenodd;"
points="22001,9390
22493,9390
22493,9508
22001,9508
22001,9390
" /> 
<polyline style="fill-rule:evenodd;"
points="19599,9390
20091,9390
20091,9508
19599,9508
19599,9390
" /> 
<polyline style="fill-rule:evenodd;"
points="19599,9646
20091,9646
20091,9764
19599,9764
19599,9646
" /> 
<polyline style="fill-rule:evenodd;"
points="19599,9902
20091,9902
20091,10020
19599,10020
19599,9902
" /> 
<polyline style="fill-rule:evenodd;"
points="19599,10157
20091,10157
20091,10276
19599,10276
19599,10157
" /> 
<polyline style="fill-rule:evenodd;"
points="19599,10413
20091,10413
20091,10531
19599,10531
19599,10413
" /> 
<polyline style="fill-rule:evenodd;"
points="19599,10669
20091,10669
20091,10787
19599,10787
19599,10669
" /> 
<polyline style="fill-rule:evenodd;"
points="19599,10925
20091,10925
20091,11043
19599,11043
19599,10925
" /> 
<polyline style="fill-rule:evenodd;"
points="19599,11181
20091,11181
20091,11299
19599,11299
19599,11181
" /> 
<polyline style="fill-rule:evenodd;"
points="19599,11437
20091,11437
20091,11555
19599,11555
19599,11437
" /> 
<polyline style="fill-rule:evenodd;"
points="19599,11693
20091,11693
20091,11811
19599,11811
19599,11693
" /> 
<polyline style="fill-rule:evenodd;"
points="19599,11949
20091,11949
20091,12067
19599,12067
19599,11949
" /> 
<polyline style="fill-rule:evenodd;"
points="19599,12205
20091,12205
20091,12323
19599,12323
19599,12205
" /> 
<polyline style="fill-rule:evenodd;"
points="19599,12461
20091,12461
20091,12579
19599,12579
19599,12461
" /> 
<polyline style="fill-rule:evenodd;"
points="19599,12716
20091,12716
20091,12835
19599,12835
19599,12716
" /> 
<polyline style="fill-rule:evenodd;"
points="20583,10000
21509,10000
21509,12224
20583,12224
20583,10000
" /> 
<circle cx="21297.9" cy="10859.2" r="78.7402" /> 
<circle cx="21297.9" cy="11371" r="78.7402" /> 
<circle cx="20786.1" cy="10859.2" r="78.7402" /> 
<circle cx="20786.1" cy="11371" r="78.7402" /> 
<circle cx="21042" cy="11115.1" r="78.7402" /> 
<polyline style="fill-rule:evenodd;"
points="18653,6724
18377,6724
18377,6448
18653,6448
18653,6724
" /> 
<polyline style="fill-rule:evenodd;"
points="18653,6172
18377,6172
18377,5896
18653,5896
18653,6172
" /> 
<polyline style="fill-rule:evenodd;"
points="17866,6448
17590,6448
17590,6172
17866,6172
17866,6448
" /> 
<polyline style="fill-rule:evenodd;"
points="18583,12915
18307,12915
18307,12639
18583,12639
18583,12915
" /> 
<polyline style="fill-rule:evenodd;"
points="18583,12363
18307,12363
18307,12087
18583,12087
18583,12363
" /> 
<polyline style="fill-rule:evenodd;"
points="17796,12639
17520,12639
17520,12363
17796,12363
17796,12639
" /> 
</g>
<g style="fill:#C1C1C1; fill-opacity:1.0; 
stroke:#C1C1C1; stroke-width:39.3701; stroke-opacity:1; 
stroke-linecap:round; stroke-linejoin:round;">
<circle cx="7230.5" cy="7583.64" r="78.7402" /> 
<circle cx="4035.5" cy="8047.64" r="78.7402" /> 
<circle cx="2762.5" cy="10383.6" r="78.7402" /> 
<circle cx="2806.5" cy="11167.6" r="78.7402" /> 
<circle cx="19306.5" cy="4838.64" r="78.7402" /> 
<circle cx="21482.5" cy="6292.96" r="78.7402" /> 
<circle cx="16374.5" cy="5326.64" r="78.7402" /> 
<circle cx="14380.5" cy="5736.64" r="78.7402" /> 
<circle cx="21869.2" cy="9950.2" r="78.7402" /> 
<circle cx="21892.2" cy="3811.07" r="78.7402" /> 
<circle cx="21856.8" cy="6393" r="78.7402" /> 
<circle cx="20222.8" cy="12277.1" r="78.7402" /> 
<circle cx="21862.5" cy="14387.6" r="155.315" /> 
<circle cx="20248.5" cy="6106.64" r="78.7402" /> 
<circle cx="21892.2" cy="12520.1" r="78.7402" /> 
<circle cx="20229" cy="9722.5" r="78.7402" /> 
<circle cx="22224.5" cy="1769.64" r="155.315" /> 
<circle cx="22886.5" cy="7720.64" r="78.7402" /> 
<circle cx="17094.5" cy="8643.64" r="78.7402" /> 
<circle cx="22854.5" cy="10346.6" r="78.7402" /> 
<circle cx="9362.5" cy="10461.1" r="78.7402" /> 
<circle cx="20881.5" cy="9067.64" r="155.315" /> 
<circle cx="20996.5" cy="13312.6" r="155.315" /> 
<circle cx="20891.5" cy="2747.64" r="155.315" /> 
<circle cx="21001.5" cy="7002.64" r="155.315" /> 
<circle cx="18256.5" cy="9709.64" r="78.7402" /> 
<circle cx="3273.5" cy="5926.64" r="78.7402" /> 
<circle cx="5606.5" cy="6688.64" r="78.7402" /> 
<circle cx="19042.5" cy="4062.64" r="78.7402" /> 
<circle cx="5154.31" cy="7160.65" r="78.7402" /> 
<circle cx="22852.5" cy="11484.6" r="78.7402" /> 
<circle cx="16390.5" cy="6924.64" r="78.7402" /> 
<circle cx="22859.9" cy="5696.75" r="78.7402" /> 
<circle cx="22720.5" cy="10022.6" r="78.7402" /> 
<circle cx="2968.5" cy="6070.64" r="78.7402" /> 
<circle cx="22886.5" cy="3820.64" r="78.7402" /> 
<circle cx="3622.98" cy="6057.45" r="78.7402" /> 
<circle cx="11518.5" cy="9195.64" r="78.7402" /> 
<circle cx="12229.5" cy="11213.6" r="78.7402" /> 
<circle cx="23152.1" cy="4645.9" r="78.7402" /> 
<circle cx="22794.5" cy="10678.6" r="78.7402" /> 
<circle cx="22745.6" cy="11775" r="78.7402" /> 
<circle cx="5398.5" cy="11102.6" r="78.7402" /> 
<circle cx="22785.7" cy="5389.59" r="78.7402" /> 
<circle cx="21783.1" cy="11898.1" r="78.7402" /> 
<circle cx="21827.5" cy="5358.64" r="78.7402" /> 
<circle cx="22960.5" cy="10962.6" r="78.7402" /> 
<circle cx="13784.6" cy="10861.1" r="78.7402" /> 
<circle cx="23332.5" cy="4106.64" r="78.7402" /> 
<circle cx="13352.5" cy="8798.64" r="78.7402" /> 
<circle cx="15298.5" cy="8994.64" r="78.7402" /> 
<circle cx="22888.5" cy="4876.64" r="78.7402" /> 
<circle cx="21504.5" cy="7690.64" r="78.7402" /> 
<circle cx="16900.5" cy="7608.64" r="78.7402" /> 
<circle cx="15948.5" cy="8544.64" r="78.7402" /> 
<circle cx="2880.5" cy="7976.64" r="78.7402" /> 
<circle cx="19338.5" cy="3806.64" r="78.7402" /> 
<circle cx="16582.5" cy="8415.64" r="78.7402" /> 
<circle cx="19362.5" cy="11132.2" r="78.7402" /> 
<circle cx="21376.5" cy="12443" r="78.7402" /> 
<circle cx="18709.5" cy="9215.64" r="78.7402" /> 
</g>
<g style="fill:#840000; fill-opacity:1.0; 
stroke:#840000; stroke-width:100; stroke-opacity:1; 
stroke-linecap:round; stroke-linejoin:round;">
</g>
<g style="fill:#840000; fill-opacity:0.0; 
stroke:#840000; stroke-width:100; stroke-opacity:1; 
stroke-linecap:round; stroke-linejoin:round;">
<path d="M6863 7926
L7206 7583
" />
<path d="M7206 7583
L7230 7583
" />
<path d="M4035 8047
L4156 7926
" />
<path d="M4156 7926
L6863 7926
" />
<path d="M1507 11164
L2803 11164
" />
<path d="M2803 11164
L2806 11167
" />
</g>
<g style="fill:#840000; fill-opacity:0.0; 
stroke:#840000; stroke-width:118.11; stroke-opacity:1; 
stroke-linecap:round; stroke-linejoin:round;">
<path d="M2452 5260
L2597 5406
" />
<path d="M1507 5260
L2452 5260
" />
</g>
<g style="fill:#840000; fill-opacity:0.0; 
stroke:#840000; stroke-width:100; stroke-opacity:1; 
stroke-linecap:round; stroke-linejoin:round;">
<path d="M22247 6114
L22563 6114
" />
<path d="M22563 6114
L22642 6193
" />
<path d="M22642 6193
L22976 6193
" />
<path d="M22976 6193
L23237 5932
" />
<path d="M23237 5932
L23335 5932
" />
<path d="M18200 4578
L18179 4557
" />
<path d="M19304 4697
L19304 4578
" />
<path d="M19306 4699
L19304 4697
" />
<path d="M19306 4838
L19306 4699
" />
<path d="M19304 4578
L18200 4578
" />
<path d="M19845 4578
L19304 4578
" />
<path d="M22247 6114
L21734 6114
" />
<path d="M21734 6114
L21556 6292
" />
<path d="M21556 6292
L21482 6292
" />
</g>
<g style="fill:#840000; fill-opacity:0.0; 
stroke:#840000; stroke-width:157.48; stroke-opacity:1; 
stroke-linecap:round; stroke-linejoin:round;">
<path d="M18179 5010
L17881 5308
" />
<path d="M18179 4557
L18179 5010
" />
<path d="M16392 5308
L16374 5326
" />
<path d="M17881 5308
L16392 5308
" />
<path d="M13605 5736
L13595 5726
" />
<path d="M14380 5736
L13605 5736
" />
</g>
<g style="fill:#840000; fill-opacity:0.0; 
stroke:#840000; stroke-width:100; stroke-opacity:1; 
stroke-linecap:round; stroke-linejoin:round;">
<path d="M18328 11808
L18430 11706
" />
</g>
<g style="fill:#840000; fill-opacity:0.0; 
stroke:#840000; stroke-width:78.7402; stroke-opacity:1; 
stroke-linecap:round; stroke-linejoin:round;">
<path d="M17519 12438
L17541 12460
" />
</g>
<g style="fill:#840000; fill-opacity:0.0; 
stroke:#840000; stroke-width:100; stroke-opacity:1; 
stroke-linecap:round; stroke-linejoin:round;">
<path d="M18153 11706
L18430 11706
" />
<path d="M17658 12201
L18153 11706
" />
<path d="M17658 12501
L17658 12201
" />
<path d="M19845 11752
L19068 11752
" />
<path d="M19068 11752
L19022 11706
" />
<path d="M18235 5560
L18512 5560
" />
<path d="M18221 5560
L18235 5560
" />
<path d="M17728 6053
L18221 5560
" />
<path d="M17728 6310
L17728 6053
" />
</g>
<g style="fill:#840000; fill-opacity:0.0; 
stroke:#840000; stroke-width:78.7402; stroke-opacity:1; 
stroke-linecap:round; stroke-linejoin:round;">
<path d="M19845 5602
L19090 5602
" />
<path d="M19090 5602
L19084 5608
" />
</g>
<g style="fill:#840000; fill-opacity:0.0; 
stroke:#840000; stroke-width:100; stroke-opacity:1; 
stroke-linecap:round; stroke-linejoin:round;">
<path d="M21880 9961
L21869 9950
" />
<path d="M22247 9961
L21880 9961
" />
<path d="M19845 3555
L19373 3555
" />
<path d="M19373 3555
L19198 3380
" />
</g>
<g style="fill:#840000; fill-opacity:0.0; 
stroke:#840000; stroke-width:78.7402; stroke-opacity:1; 
stroke-linecap:round; stroke-linejoin:round;">
<path d="M19112 6628
L19110 6626
" />
<path d="M19845 6114
L19501 6114
" />
<path d="M19501 6114
L19428 6186
" />
<path d="M19428 6186
L19428 6312
" />
<path d="M19428 6312
L19112 6628
" />
</g>
<g style="fill:#840000; fill-opacity:0.0; 
stroke:#840000; stroke-width:100; stroke-opacity:1; 
stroke-linecap:round; stroke-linejoin:round;">
<path d="M19845 12264
L19479 12264
" />
<path d="M19479 12264
L19427 12316
" />
<path d="M19427 12316
L19427 12453
" />
<path d="M19427 12453
L19100 12780
" />
<path d="M19100 12780
L19080 12780
" />
<path d="M21900 3811
L21892 3811
" />
<path d="M22247 3811
L21900 3811
" />
<path d="M22247 6370
L21897 6370
" />
<path d="M21874 6392
L21856 6392
" />
<path d="M21897 6370
L21874 6392
" />
<path d="M19845 12264
L20211 12264
" />
<path d="M20211 12264
L20222 12275
" />
<path d="M20222 12275
L20222 12277
" />
</g>
<g style="fill:#840000; fill-opacity:0.0; 
stroke:#840000; stroke-width:393.701; stroke-opacity:1; 
stroke-linecap:round; stroke-linejoin:round;">
<path d="M21860 14385
L21862 14387
" />
<path d="M21860 14380
L21860 14385
" />
</g>
<g style="fill:#840000; fill-opacity:0.0; 
stroke:#840000; stroke-width:100; stroke-opacity:1; 
stroke-linecap:round; stroke-linejoin:round;">
<path d="M19281 9705
L19150 9574
" />
<path d="M19845 9705
L19281 9705
" />
<path d="M19845 6114
L20240 6114
" />
<path d="M20240 6114
L20248 6106
" />
<path d="M21921 12520
L21892 12520
" />
<path d="M22247 12520
L21921 12520
" />
<path d="M20211 9705
L20228 9722
" />
<path d="M19845 9705
L20211 9705
" />
<path d="M20228 9722
L20229 9722
" />
<path d="M20228 9722
L20228 9722
" />
</g>
<g style="fill:#840000; fill-opacity:0.0; 
stroke:#840000; stroke-width:393.701; stroke-opacity:1; 
stroke-linecap:round; stroke-linejoin:round;">
<path d="M21977 1769
L22224 1769
" />
<path d="M21912 1834
L21977 1769
" />
<path d="M21912 1862
L21912 1834
" />
</g>
<g style="fill:#840000; fill-opacity:0.0; 
stroke:#840000; stroke-width:100; stroke-opacity:1; 
stroke-linecap:round; stroke-linejoin:round;">
<path d="M19077 12777
L19080 12780
" />
<path d="M18445 12777
L19077 12777
" />
<path d="M19050 6586
L19092 6628
" />
<path d="M18515 6586
L19050 6586
" />
<path d="M19845 12008
L19349 12008
" />
<path d="M19349 12008
L19169 12188
" />
<path d="M19169 12188
L19080 12188
" />
<path d="M19043 12225
L19080 12188
" />
<path d="M18445 12225
L19043 12225
" />
</g>
<g style="fill:#840000; fill-opacity:0.0; 
stroke:#840000; stroke-width:78.7402; stroke-opacity:1; 
stroke-linecap:round; stroke-linejoin:round;">
<path d="M19845 5858
L19420 5858
" />
<path d="M19420 5858
L19242 6036
" />
<path d="M19242 6036
L19092 6036
" />
</g>
<g style="fill:#840000; fill-opacity:0.0; 
stroke:#840000; stroke-width:100; stroke-opacity:1; 
stroke-linecap:round; stroke-linejoin:round;">
<path d="M19092 6036
L19006 6036
" />
<path d="M19092 6036
L19072 6036
" />
<path d="M19090 6034
L19092 6036
" />
<path d="M18515 6034
L19090 6034
" />
<path d="M23583 7612
L22994 7612
" />
<path d="M22994 7612
L22886 7720
" />
<path d="M17283 8832
L17094 8643
" />
<path d="M17741 8832
L17283 8832
" />
</g>
<g style="fill:#840000; fill-opacity:0.0; 
stroke:#840000; stroke-width:393.701; stroke-opacity:1; 
stroke-linecap:round; stroke-linejoin:round;">
<path d="M23196 8262
L23296 8362
" />
<path d="M22196 8262
L23196 8262
" />
</g>
<g style="fill:#840000; fill-opacity:0.0; 
stroke:#840000; stroke-width:787.402; stroke-opacity:1; 
stroke-linecap:round; stroke-linejoin:round;">
<path d="M25346 8737
L24491 8737
" />
<path d="M24491 8737
L23671 8737
" />
</g>
<g style="fill:#840000; fill-opacity:0.0; 
stroke:#840000; stroke-width:157.48; stroke-opacity:1; 
stroke-linecap:round; stroke-linejoin:round;">
<path d="M24409 7612
L24409 8656
" />
<path d="M24409 8656
L24491 8737
" />
</g>
<g style="fill:#840000; fill-opacity:0.0; 
stroke:#840000; stroke-width:393.701; stroke-opacity:1; 
stroke-linecap:round; stroke-linejoin:round;">
<path d="M22196 8762
L22196 8262
" />
<path d="M22196 7762
L22196 8262
" />
</g>
<g style="fill:#840000; fill-opacity:0.0; 
stroke:#840000; stroke-width:787.402; stroke-opacity:1; 
stroke-linecap:round; stroke-linejoin:round;">
<path d="M23671 8737
L23296 8362
" />
</g>
<g style="fill:#840000; fill-opacity:0.0; 
stroke:#840000; stroke-width:100; stroke-opacity:1; 
stroke-linecap:round; stroke-linejoin:round;">
<path d="M22688 10416
L22760 10416
" />
<path d="M22632 10472
L22688 10416
" />
<path d="M22247 10472
L22632 10472
" />
<path d="M22830 10346
L22854 10346
" />
<path d="M22760 10416
L22830 10346
" />
<path d="M8585 9912
L8585 9991
" />
<path d="M9055 10461
L9362 10461
" />
<path d="M8585 9991
L9055 10461
" />
<path d="M20881 9067
L20499 9449
" />
<path d="M20499 9449
L19845 9449
" />
</g>
<g style="fill:#840000; fill-opacity:0.0; 
stroke:#840000; stroke-width:118.11; stroke-opacity:1; 
stroke-linecap:round; stroke-linejoin:round;">
<path d="M19845 12972
L19845 12776
" />
<path d="M20185 13312
L19845 12972
" />
<path d="M20996 13312
L20185 13312
" />
<path d="M23127 9449
L23215 9537
" />
<path d="M22247 9449
L23127 9449
" />
</g>
<g style="fill:#840000; fill-opacity:0.0; 
stroke:#840000; stroke-width:787.402; stroke-opacity:1; 
stroke-linecap:round; stroke-linejoin:round;">
<path d="M23596 9918
L23215 9537
" />
<path d="M23596 10829
L23596 9918
" />
<path d="M24954 12187
L23596 10829
" />
<path d="M25371 12187
L24954 12187
" />
<path d="M25371 13187
L23396 13187
" />
<path d="M23396 13187
L23121 12912
" />
</g>
<g style="fill:#840000; fill-opacity:0.0; 
stroke:#840000; stroke-width:118.11; stroke-opacity:1; 
stroke-linecap:round; stroke-linejoin:round;">
<path d="M22984 12776
L23121 12912
" />
<path d="M22247 12776
L22984 12776
" />
<path d="M20339 3299
L19845 3299
" />
<path d="M20891 2747
L20339 3299
" />
</g>
<g style="fill:#840000; fill-opacity:0.0; 
stroke:#840000; stroke-width:157.48; stroke-opacity:1; 
stroke-linecap:round; stroke-linejoin:round;">
<path d="M19847 6627
L19845 6627
" />
<path d="M19852 6632
L19847 6627
" />
</g>
<g style="fill:#840000; fill-opacity:0.0; 
stroke:#840000; stroke-width:118.11; stroke-opacity:1; 
stroke-linecap:round; stroke-linejoin:round;">
<path d="M20624 6626
L19845 6626
" />
<path d="M21001 7002
L20624 6626
" />
<path d="M22684 3352
L23371 3352
" />
<path d="M22631 3299
L22684 3352
" />
<path d="M22247 3299
L22631 3299
" />
</g>
<g style="fill:#840000; fill-opacity:0.0; 
stroke:#840000; stroke-width:787.402; stroke-opacity:1; 
stroke-linecap:round; stroke-linejoin:round;">
<path d="M23851 3352
L23371 3352
" />
<path d="M24356 3857
L23851 3352
" />
<path d="M24356 4757
L24356 3857
" />
<path d="M24886 5287
L24356 4757
" />
<path d="M25321 5287
L24886 5287
" />
<path d="M25321 6287
L24796 6287
" />
<path d="M24796 6287
L24598 6485
" />
<path d="M24598 6485
L24598 6524
" />
<path d="M24598 6524
L24499 6623
" />
<path d="M24499 6623
L23315 6623
" />
</g>
<g style="fill:#840000; fill-opacity:0.0; 
stroke:#840000; stroke-width:118.11; stroke-opacity:1; 
stroke-linecap:round; stroke-linejoin:round;">
<path d="M23313 6626
L23315 6623
" />
<path d="M22247 6626
L23313 6626
" />
</g>
<g style="fill:#840000; fill-opacity:0.0; 
stroke:#840000; stroke-width:100; stroke-opacity:1; 
stroke-linecap:round; stroke-linejoin:round;">
<path d="M19845 10216
L18763 10216
" />
<path d="M18763 10216
L18256 9709
" />
<path d="M19845 4066
L19046 4066
" />
<path d="M19046 4066
L19042 4062
" />
<path d="M22840 11496
L22852 11484
" />
<path d="M22247 11496
L22840 11496
" />
<path d="M22232 5884
L22672 5884
" />
<path d="M22672 5884
L22859 5696
" />
<path d="M22613 10216
L22720 10109
" />
<path d="M22720 10109
L22720 10022
" />
<path d="M22247 10216
L22613 10216
" />
<path d="M1507 6441
L2597 6441
" />
<path d="M2597 6441
L2968 6070
" />
<path d="M22247 4066
L22640 4066
" />
<path d="M22640 4066
L22886 3820
" />
<path d="M2983 6835
L3622 6196
" />
<path d="M3622 6196
L3622 6057
" />
<path d="M1507 6835
L2983 6835
" />
<path d="M11513 9190
L11518 9195
" />
<path d="M10717 9190
L11513 9190
" />
<path d="M23036 4578
L23103 4645
" />
<path d="M23103 4645
L23152 4645
" />
<path d="M22247 4578
L23036 4578
" />
<path d="M22794 10678
L22744 10728
" />
<path d="M22744 10728
L22247 10728
" />
<path d="M22247 11752
L22723 11752
" />
<path d="M22723 11752
L22745 11774
" />
<path d="M4749 10771
L5080 11102
" />
<path d="M5080 11102
L5398 11102
" />
<path d="M1507 10771
L4749 10771
" />
<path d="M22247 5602
L22572 5602
" />
<path d="M22572 5602
L22785 5389
" />
<path d="M22247 12008
L21881 12008
" />
<path d="M21881 12008
L21783 11909
" />
<path d="M21783 11909
L21783 11898
" />
<path d="M22247 5346
L21901 5346
" />
<path d="M21889 5358
L21827 5358
" />
<path d="M21901 5346
L21889 5358
" />
<path d="M7207 10962
L6851 10962
" />
<path d="M6851 10962
L6255 11558
" />
<path d="M6255 11558
L1507 11558
" />
<path d="M7207 9912
L7207 10962
" />
<path d="M7602 8862
L7345 8862
" />
<path d="M7345 8862
L7207 9000
" />
<path d="M7207 9000
L7207 9912
" />
<path d="M7207 12012
L1567 12012
" />
<path d="M1567 12012
L1507 11952
" />
<path d="M7552 14412
L7552 13101
" />
<path d="M7552 13101
L7513 13062
" />
<path d="M7513 13062
L7157 13062
" />
<path d="M7207 12012
L7207 13012
" />
<path d="M7207 13012
L7157 13062
" />
<path d="M22247 10984
L22938 10984
" />
<path d="M22938 10984
L22960 10962
" />
<path d="M8585 12012
L12633 12012
" />
<path d="M12633 12012
L13784 10861
" />
<path d="M22247 4322
L23116 4322
" />
<path d="M23116 4322
L23332 4106
" />
<path d="M13352 8798
L11188 10962
" />
<path d="M11188 10962
L8585 10962
" />
<path d="M15298 8994
L15298 9748
" />
<path d="M15298 9748
L11984 13062
" />
<path d="M11984 13062
L8535 13062
" />
<path d="M22846 4834
L22888 4876
" />
<path d="M22247 4834
L22846 4834
" />
<path d="M21871 7309
L21504 7676
" />
<path d="M21504 7676
L21504 7690
" />
<path d="M21871 7262
L21871 7309
" />
<path d="M22196 7262
L21871 7262
" />
<path d="M7474 8326
L15730 8326
" />
<path d="M15730 8326
L15948 8544
" />
<path d="M1507 9983
L5817 9983
" />
<path d="M5817 9983
L7474 8326
" />
<path d="M17651 7612
L17666 7627
" />
<path d="M16904 7612
L17651 7612
" />
<path d="M16900 7608
L16904 7612
" />
<path d="M7721 2287
L7996 2012
" />
<path d="M7721 2387
L7721 2287
" />
<path d="M7371 2725
L7709 2387
" />
<path d="M7709 2387
L7721 2387
" />
<path d="M7371 3547
L7371 2725
" />
<path d="M3306 7612
L7371 3547
" />
<path d="M2357 7612
L3306 7612
" />
<path d="M2347 7622
L2357 7612
" />
<path d="M1507 7622
L2347 7622
" />
<path d="M7571 3654
L7571 2808
" />
<path d="M1507 8408
L2817 8408
" />
<path d="M8521 2587
L9096 2012
" />
<path d="M2817 8408
L7571 3654
" />
<path d="M7571 2808
L7792 2587
" />
<path d="M7792 2587
L8521 2587
" />
<path d="M1580 8089
L2767 8089
" />
<path d="M2767 8089
L2880 7976
" />
<path d="M6838 8126
L15927 8126
" />
<path d="M1507 9589
L5375 9589
" />
<path d="M5375 9589
L6838 8126
" />
<path d="M19342 3811
L19338 3806
" />
<path d="M19845 3811
L19342 3811
" />
<path d="M15927 8126
L16392 8592
" />
<path d="M16392 8592
L16405 8592
" />
<path d="M16405 8592
L16582 8415
" />
<path d="M18318 9384
L18894 9961
" />
<path d="M17185 9384
L18318 9384
" />
<path d="M18894 9961
L19845 9961
" />
<path d="M16392 8592
L17185 9384
" />
<path d="M19479 10728
L19362 10846
" />
<path d="M19362 10846
L19362 11132
" />
<path d="M19845 10728
L19479 10728
" />
<path d="M8960 8550
L9419 8550
" />
<path d="M9419 8550
L15586 8550
" />
<path d="M9929 9190
L9672 9190
" />
<path d="M9672 9190
L9419 8938
" />
<path d="M9419 8938
L9419 8550
" />
<path d="M18142 10728
L18106 10692
" />
<path d="M19845 10728
L18142 10728
" />
<path d="M22267 12243
L22247 12264
" />
<path d="M22965 12243
L22267 12243
" />
<path d="M21762 12264
L21583 12442
" />
<path d="M22247 12264
L21762 12264
" />
<path d="M21583 12442
L21376 12442
" />
<path d="M16534 10052
L17431 10052
" />
<path d="M12174 14412
L16534 10052
" />
<path d="M17431 10052
L18069 10690
" />
<path d="M8340 14412
L12174 14412
" />
<path d="M17382 10003
L18069 10690
" />
<path d="M17039 10003
L17382 10003
" />
<path d="M15586 8550
L17039 10003
" />
<path d="M8648 8862
L8960 8550
" />
<path d="M18069 10690
L18157 10690
" />
<path d="M8390 8862
L8648 8862
" />
<path d="M18682 9215
L18709 9215
" />
<path d="M18506 9039
L18682 9215
" />
<path d="M18506 8872
L18506 9039
" />
</g>
<g style="fill:#840000; fill-opacity:0.0; 
stroke:#840000; stroke-width:157.48; stroke-opacity:1; 
stroke-linecap:round; stroke-linejoin:round;">
<path d="M7996 3012
L9096 3012
" />
<path d="M10196 3012
L11296 3012
" />
<path d="M9511 3026
L9497 3012
" />
<path d="M9511 5728
L9511 3026
" />
<path d="M9497 3012
L10196 3012
" />
<path d="M9096 3012
L9497 3012
" />
<path d="M7996 4034
L7996 3012
" />
<path d="M10931 5726
L10929 5728
" />
<path d="M12177 5726
L10931 5726
" />
</g>
<g style="fill:#840000; fill-opacity:0.0; 
stroke:#840000; stroke-width:118.11; stroke-opacity:1; 
stroke-linecap:round; stroke-linejoin:round;">
<path d="M21046 9862
L21046 11112
" />
<path d="M22234 9692
L21216 9692
" />
<path d="M21216 9692
L21046 9862
" />
<path d="M22247 9705
L22234 9692
" />
</g>
<g style="fill:#840000; fill-opacity:0.0; 
stroke:#840000; stroke-width:100; stroke-opacity:1; 
stroke-linecap:round; stroke-linejoin:round;">
<path d="M19696 8262
L20138 8262
" />
<path d="M20138 8262
L20306 8430
" />
<path d="M20306 8430
L20306 8629
" />
<path d="M20306 8629
L20173 8762
" />
<path d="M20173 8762
L19696 8762
" />
<path d="M15379 3650
L16286 4557
" />
<path d="M16286 4557
L17109 4557
" />
<path d="M14985 2112
L15379 2506
" />
<path d="M15379 2506
L15379 3650
" />
<path d="M20180 1862
L20180 2277
" />
<path d="M20180 2277
L20285 2382
" />
<path d="M20285 2382
L21007 2382
" />
<path d="M21216 3542
L21205 3553
" />
<path d="M21007 2382
L21216 2591
" />
<path d="M21216 2591
L21216 3542
" />
</g>
<g style="fill:#840000; fill-opacity:0.0; 
stroke:#840000; stroke-width:118.11; stroke-opacity:1; 
stroke-linecap:round; stroke-linejoin:round;">
<path d="M21174 5090
L21046 4962
" />
<path d="M21174 11240
L21046 11112
" />
<path d="M22247 11240
L21174 11240
" />
<path d="M20662 11496
L21046 11112
" />
<path d="M19845 11496
L20662 11496
" />
<path d="M20874 12534
L21046 12362
" />
<path d="M21046 12362
L21046 11112
" />
<path d="M19860 12534
L20874 12534
" />
<path d="M19845 12520
L19860 12534
" />
</g>
<g style="fill:#840000; fill-opacity:0.0; 
stroke:#840000; stroke-width:100; stroke-opacity:1; 
stroke-linecap:round; stroke-linejoin:round;">
<path d="M22613 11240
L22247 11240
" />
<path d="M22642 11211
L22613 11240
" />
<path d="M23079 11211
L22642 11211
" />
<path d="M23557 11688
L23079 11211
" />
<path d="M23557 12243
L23557 11688
" />
</g>
<g style="fill:#840000; fill-opacity:0.0; 
stroke:#840000; stroke-width:118.11; stroke-opacity:1; 
stroke-linecap:round; stroke-linejoin:round;">
<path d="M22017 3555
L22015 3553
" />
<path d="M22247 3555
L22017 3555
" />
</g>
<g style="fill:#840000; fill-opacity:0.0; 
stroke:#840000; stroke-width:100; stroke-opacity:1; 
stroke-linecap:round; stroke-linejoin:round;">
<path d="M22769 5125
L23647 5125
" />
<path d="M22734 5090
L22769 5125
" />
<path d="M22247 5090
L22734 5090
" />
<path d="M23927 5404
L23927 5932
" />
<path d="M23647 5125
L23927 5404
" />
<path d="M19370 8762
L19150 8982
" />
<path d="M19696 8762
L19370 8762
" />
</g>
<g style="fill:#840000; fill-opacity:0.0; 
stroke:#840000; stroke-width:118.11; stroke-opacity:1; 
stroke-linecap:round; stroke-linejoin:round;">
<path d="M20662 5346
L21046 4962
" />
<path d="M20889 6370
L21046 6212
" />
<path d="M21046 6212
L21046 4962
" />
<path d="M19845 6370
L20889 6370
" />
<path d="M22247 5090
L21174 5090
" />
<path d="M19845 5346
L20662 5346
" />
<path d="M21205 3553
L21046 3712
" />
<path d="M21046 3712
L21046 4962
" />
<path d="M22015 3553
L21205 3553
" />
</g>
<g style="fill:#840000; fill-opacity:1.0; 
stroke:#840000; stroke-width:100; stroke-opacity:1; 
stroke-linecap:round; stroke-linejoin:round;">
<polyline style="fill-rule:evenodd;"
points="21104,4984
21048,5040
21041,5034
21035,5040
20988,4993
20988,4936
21035,4889
21041,4895
21048,4889
21104,4945
21104,4984
" /> 
<polyline style="fill-rule:evenodd;"
points="21104,11134
21068,11170
21015,11170
20988,11143
20988,11086
21035,11039
21041,11045
21048,11039
21104,11095
21104,11134
" /> 
<polyline style="fill-rule:evenodd;"
points="24188,5499
24154,5485
24040,5485
23977,5548
23977,5882
23985,5882
23985,5979
23869,5979
23869,5882
23877,5882
23877,5548
23815,5485
23700,5485
23631,5514
23562,5485
23462,5485
23141,5485
23128,5472
23134,5459
23134,5320
23081,5192
23068,5179
23085,5172
23183,5074
23216,4994
23221,4994
23349,4941
23447,4843
23500,4715
23500,4576
23447,4448
23438,4439
23529,4402
23627,4304
23680,4176
23680,4092
23712,4124
23712,4757
23712,4757
23761,5003
23901,5212
24188,5499
" /> 
<polyline style="fill-rule:evenodd;"
points="24400,12543
23943,12543
23983,12504
24021,12412
24021,12312
24021,12278
23959,12215
23644,12215
23644,12223
23544,12223
23544,12215
23536,12215
23536,12115
23544,12115
23544,12107
23644,12107
23644,12115
23959,12115
23965,12109
24400,12543
" /> 
<polyline style="fill-rule:evenodd;"
points="25155,15545
25111,15589
25123,15602
22703,15602
22703,14752
22703,14652
22703,14022
22664,13931
22594,13860
22502,13822
22403,13822
21222,13822
21130,13860
21060,13931
21022,14022
21022,14122
21022,14752
21060,14844
21130,14914
21222,14952
21321,14952
22502,14952
22594,14914
22664,14844
22703,14752
22703,15602
20971,15602
20971,14752
20971,14652
20971,14500
20971,14275
20971,14122
20971,14022
20932,13931
20862,13860
20770,13822
20243,13822
20180,13885
20180,14337
20908,14337
20971,14275
20971,14500
20908,14437
20180,14437
20180,14890
20243,14952
20770,14952
20862,14914
20932,14844
20971,14752
20971,15602
20080,15602
20080,14890
20080,14437
20080,14337
20080,13885
20018,13822
19490,13822
19398,13860
19328,13931
19290,14022
19290,14122
19290,14275
19352,14337
20080,14337
20080,14437
19352,14437
19290,14500
19290,14652
19290,14752
19328,14844
19398,14914
19490,14952
20018,14952
20080,14890
20080,15602
17037,15602
17037,11173
17037,10740
16516,10740
16453,10803
16453,10936
16453,11035
16491,11127
16561,11198
16653,11236
16975,11236
17037,11173
17037,15602
6540,15602
6196,15602
6208,15589
6164,15545
6338,15425
6539,14943
6540,14421
6341,13938
6338,13934
6164,13813
6093,13884
5298,14679
5303,14685
5233,14755
5227,14750
5221,14755
5151,14685
5156,14679
5151,14674
5221,14603
5227,14608
6093,13742
5973,13568
5491,13367
4968,13366
4486,13565
4481,13568
4361,13742
4317,13698
4306,13710
4306,12377
4306,12376
4306,12313
4305,12312
6701,12312
6701,12396
6739,12488
6764,12514
6759,12516
6689,12586
6651,12678
6651,12777
6651,13446
6689,13538
6759,13609
6851,13647
6951,13647
7252,13647
7252,13965
7183,14035
7145,14126
7145,14226
7145,14698
7183,14790
7253,14860
7345,14898
7444,14898
7759,14898
7851,14860
7921,14790
7946,14730
7971,14790
8041,14860
8133,14898
8232,14898
8547,14898
8639,14860
8709,14790
8742,14712
12174,14712
12174,14712
12289,14689
12289,14689
12386,14624
16453,10557
16453,10578
16516,10640
17037,10640
17037,10632
17137,10632
17137,10640
17145,10640
17145,10740
17137,10740
17137,11173
17200,11236
17521,11236
17613,11198
17622,11188
17631,11198
17723,11236
17823,11236
18591,11236
18683,11198
18753,11127
18791,11035
18791,11028
19028,11028
19014,11062
19014,11201
19038,11259
18795,11259
18726,11288
18657,11259
18557,11259
18203,11259
18111,11297
18041,11368
18007,11450
17941,11494
17446,11989
17381,12086
17373,12125
17359,12131
17289,12202
17251,12293
17251,12333
17230,12438
17251,12544
17251,12708
17289,12800
17359,12870
17451,12908
17550,12908
17865,12908
17957,12870
18028,12800
18038,12776
18038,12984
18076,13076
18146,13146
18238,13184
18337,13184
18652,13184
18726,13154
18741,13169
18833,13207
18933,13207
19327,13207
19419,13169
19489,13099
19493,13089
19530,13104
19569,13104
19627,13191
19966,13531
20067,13598
20067,13598
20185,13621
20704,13621
20755,13672
20911,13737
21080,13737
21236,13673
21356,13553
21421,13397
21421,13228
21357,13072
21237,12952
21081,12887
20912,12887
20756,12952
20704,13003
20316,13003
20323,12996
20361,12904
20361,12805
20361,12648
20361,12647
20361,12621
20343,12604
20419,12572
20502,12489
20514,12494
20613,12494
20934,12494
20996,12432
20996,12494
21028,12494
21028,12511
21080,12640
21178,12738
21306,12791
21445,12791
21562,12742
21583,12742
21583,12742
21615,12736
21694,12815
21731,12830
21731,12904
21769,12996
21839,13066
21931,13104
22031,13104
22516,13104
22526,13158
22666,13367
22941,13642
22941,13642
23066,13726
23150,13782
23150,13782
23396,13831
25130,13831
24981,13934
24780,14416
24779,14938
24978,15421
24981,15425
25155,15545
" /> 
<polyline style="fill-rule:evenodd;"
points="26168,14685
26098,14755
26092,14750
26086,14755
26016,14685
26021,14679
26016,14674
26086,14603
26092,14608
26098,14603
26168,14674
26163,14679
26168,14685
" /> 
<polyline style="fill-rule:evenodd;"
points="27015,13711
27002,13698
26958,13742
26958,13742
26838,13568
26356,13367
25998,13366
26034,13187
25989,12961
25861,12770
25844,12759
25826,12732
25759,12687
25826,12642
25844,12616
25861,12604
25989,12413
26034,12187
25989,11961
25861,11770
25844,11759
25826,11732
25748,11680
25861,11604
25989,11413
26034,11187
25989,10961
25861,10770
25852,10764
25913,10739
25983,10669
26021,10577
26021,10477
26021,9797
25983,9706
25913,9635
25821,9597
25721,9597
24921,9597
24829,9635
24759,9706
24721,9797
24721,9897
24721,10577
24759,10669
24829,10739
24890,10764
24881,10770
24753,10961
24734,11057
24240,10563
24240,9918
24240,9918
24240,9918
24191,9672
24051,9463
24051,9463
24051,9463
23969,9381
24491,9381
25250,9381
25346,9400
25595,9350
25806,9209
25947,8999
25996,8750
25996,8724
25947,8476
25868,8357
25888,8349
25958,8279
25996,8187
25996,8087
25996,7287
25958,7196
25888,7125
25796,7087
25696,7087
24940,7087
24954,7078
25053,6979
25053,6979
25053,6979
25085,6931
25321,6931
25567,6882
25776,6742
25794,6716
25811,6704
25939,6513
25984,6287
25939,6061
25811,5870
25794,5859
25776,5832
25709,5787
25776,5742
25794,5716
25811,5704
25939,5513
25984,5287
25939,5061
25811,4870
25794,4859
25776,4832
25698,4780
25811,4704
25939,4513
25984,4287
25939,4061
25811,3870
25802,3864
25863,3839
25933,3769
25971,3677
25971,3577
25971,2897
25933,2806
25863,2735
25771,2697
25671,2697
24871,2697
24779,2735
24709,2806
24671,2897
24671,2997
24671,3262
24306,2897
24097,2757
23851,2708
23851,2708
23371,2708
23125,2757
22916,2897
22818,3043
22794,3043
22753,3016
22753,2227
22753,2127
22753,1497
22714,1406
22644,1335
22552,1297
22453,1297
21272,1297
21180,1335
21110,1406
21072,1497
21072,1597
21072,2227
21110,2319
21180,2389
21272,2427
21371,2427
22552,2427
22644,2389
22714,2319
22753,2227
22753,3016
22749,3013
22631,2990
22610,2990
22562,2970
22463,2970
21931,2970
21839,3008
21769,3078
21731,3170
21731,3270
21731,3426
21731,3427
21731,3453
21749,3471
21757,3489
21695,3515
21614,3595
21578,3580
21479,3580
21159,3580
21096,3643
21096,4542
21060,4540
21059,4539
21041,4540
21024,4539
21023,4540
20996,4541
20996,3643
20934,3580
20613,3580
20514,3580
20422,3618
20361,3679
20361,3604
20458,3584
20458,3584
20558,3517
20903,3172
20975,3172
21131,3108
21251,2988
21316,2832
21316,2663
21252,2507
21132,2387
20978,2323
20982,2319
21021,2227
21021,2127
21021,1975
21021,1750
21021,1597
21021,1497
20982,1406
20912,1335
20820,1297
20293,1297
20230,1360
20230,1812
20958,1812
21021,1750
21021,1975
20958,1912
20230,1912
20230,2365
20293,2427
20610,2427
20531,2506
20466,2662
20466,2735
20211,2990
20208,2990
20161,2970
20130,2970
20130,2365
20130,1912
20130,1812
20130,1360
20068,1297
19540,1297
19448,1335
19378,1406
19340,1497
19340,1597
19340,1750
19402,1812
20130,1812
20130,1912
19402,1912
19340,1975
19340,2127
19340,2227
19378,2319
19448,2389
19540,2427
20068,2427
20130,2365
20130,2970
20061,2970
19530,2970
19520,2974
19517,2971
19425,2933
19325,2933
18971,2933
18902,2962
18833,2933
18719,2933
18656,2996
18656,3330
18664,3330
18664,3430
18656,3430
18656,3765
18719,3827
18784,3827
18747,3865
18694,3993
18694,4045
18613,4012
18556,4012
18556,3765
18556,3430
18556,3330
18556,2996
18494,2933
18379,2933
18287,2971
18217,3042
18179,3133
18179,3233
18179,3268
18242,3330
18556,3330
18556,3430
18242,3430
18179,3493
18179,3527
18179,3627
18217,3719
18287,3789
18379,3827
18494,3827
18556,3765
18556,4012
18513,4012
17745,4012
17653,4050
17644,4059
17635,4050
17543,4012
17222,4012
17159,4074
17159,4507
17167,4507
17167,4607
17159,4607
17159,4615
17059,4615
17059,4607
17059,4507
17059,4074
16997,4012
16675,4012
16583,4050
16513,4120
16475,4212
16475,4311
16475,4445
16538,4507
17059,4507
17059,4607
16538,4607
16475,4670
16475,4803
16475,4902
16507,4979
16448,4979
16444,4978
16305,4978
16177,5031
16079,5129
16026,5257
16026,5395
16078,5523
16176,5621
16304,5675
16443,5675
16534,5637
17720,5637
17516,5841
17457,5929
17429,5941
17359,6011
17321,6103
17321,6202
17321,6517
17359,6609
17429,6680
17521,6718
17620,6718
17935,6718
18027,6680
18098,6609
18108,6585
18108,6793
18146,6885
18216,6956
18308,6994
18407,6994
18722,6994
18728,6991
18753,7017
18845,7055
18945,7055
19245,7055
19221,7112
19221,7150
19284,7212
19646,7212
19646,7204
19746,7204
19746,7212
20109,7212
20171,7150
20171,7112
20133,7021
20067,6954
20161,6954
20208,6935
20496,6935
20576,7014
20576,7086
20640,7243
20760,7362
20916,7427
21085,7427
21241,7363
21361,7243
21426,7087
21426,6918
21362,6762
21242,6642
21086,6577
21013,6577
20843,6407
20749,6344
20934,6344
20996,6282
20996,5388
21023,5389
21024,5390
21041,5389
21059,5390
21060,5389
21096,5388
21096,6282
21134,6319
21134,6361
21186,6490
21284,6588
21412,6641
21551,6641
21594,6623
21659,6688
21731,6718
21731,6754
21769,6846
21839,6916
21875,6931
21829,6950
21804,6975
21756,6985
21659,7050
21594,7147
21590,7166
21400,7356
21307,7395
21209,7493
21156,7621
21156,7759
21208,7887
21306,7985
21434,8039
21573,8039
21701,7986
21737,7950
21749,7980
21749,8044
21721,8112
21721,8212
21721,8412
21749,8480
21749,8544
21721,8612
21721,8712
21721,8912
21759,9004
21829,9074
21921,9112
21931,9112
21943,9120
21931,9120
21839,9158
21769,9228
21731,9320
21731,9420
21731,9576
21731,9577
21731,9603
21749,9621
21750,9622
21672,9654
21590,9735
21578,9730
21479,9730
21159,9730
21096,9793
21096,10692
21060,10690
21059,10689
21041,10690
21024,10689
21023,10690
20996,10691
20996,9793
20934,9730
20613,9730
20592,9730
20614,9726
20614,9726
20712,9661
20880,9492
20965,9492
21121,9428
21241,9308
21306,9152
21306,8983
21242,8827
21122,8707
20966,8642
20797,8642
20641,8707
20521,8826
20456,8982
20456,9068
20375,9149
20230,9149
20171,9124
20171,8912
20171,8875
20171,8650
20171,8612
20133,8521
20125,8512
20133,8504
20171,8412
20171,8375
20171,8150
20171,8112
20133,8021
20125,8012
20133,8004
20171,7912
20171,7875
20171,7650
20171,7612
20133,7521
20125,7512
20133,7504
20171,7412
20171,7375
20109,7312
19746,7312
19746,7475
19746,7550
19746,7712
20109,7712
20171,7650
20171,7875
20109,7812
19746,7812
19746,7975
19746,8050
19746,8212
20109,8212
20171,8150
20171,8375
20109,8312
19746,8312
19746,8475
19746,8550
19746,8712
20109,8712
20171,8650
20171,8875
20109,8812
19746,8812
19746,9050
19809,9112
19871,9112
19971,9112
20063,9074
20133,9004
20171,8912
20171,9124
20161,9120
20061,9120
19597,9120
19597,9099
19646,9050
19646,8812
19638,8812
19638,8712
19646,8712
19646,8550
19646,8475
19646,8312
19646,8212
19646,8050
19646,7975
19646,7812
19646,7712
19646,7550
19646,7475
19646,7312
19284,7312
19221,7375
19221,7412
19259,7504
19267,7512
19259,7521
19221,7612
19221,7650
19284,7712
19646,7712
19646,7812
19284,7812
19221,7875
19221,7912
19259,8004
19267,8012
19259,8021
19221,8112
19221,8150
19284,8212
19646,8212
19646,8312
19284,8312
19221,8375
19221,8412
19259,8504
19267,8512
19259,8521
19232,8585
19200,8618
19200,8932
19208,8932
19208,9032
19200,9032
19200,9040
19100,9040
19100,9032
19092,9032
19092,8932
19100,8932
19100,8618
19038,8555
19003,8555
18903,8555
18898,8558
18898,8536
18878,8488
18878,7923
18878,7823
18878,7750
18878,7525
18878,7451
18878,7351
18839,7260
18769,7189
18677,7151
18583,7151
18520,7214
18520,7587
18815,7587
18878,7525
18878,7750
18815,7687
18520,7687
18520,8061
18583,8123
18677,8123
18769,8085
18839,8015
18878,7923
18878,8488
18859,8445
18789,8374
18697,8336
18598,8336
18420,8336
18420,8061
18420,7687
18412,7687
18412,7587
18420,7587
18420,7214
18358,7151
18263,7151
18171,7189
18101,7260
18076,7319
18051,7260
17981,7189
17889,7151
17790,7151
17475,7151
17383,7189
17313,7260
17291,7312
17096,7312
16970,7260
16831,7260
16738,7298
16738,6855
16686,6727
16588,6629
16460,6576
16321,6576
16193,6629
16095,6727
16042,6855
16042,6993
16094,7121
16192,7219
16320,7273
16459,7273
16587,7220
16685,7122
16738,6994
16738,6855
16738,7298
16703,7313
16605,7411
16552,7539
16552,7677
16604,7805
16702,7903
16830,7957
16969,7957
17077,7912
17275,7912
17275,7923
17313,8015
17383,8085
17475,8123
17574,8123
17889,8123
17981,8085
18051,8015
18076,7955
18101,8015
18171,8085
18263,8123
18358,8123
18420,8061
18420,8336
18283,8336
18191,8374
18121,8445
18096,8504
18071,8445
18001,8374
17909,8336
17810,8336
17495,8336
17403,8374
17360,8417
17292,8348
17164,8295
17025,8295
16926,8336
16878,8218
16780,8120
16652,8067
16513,8067
16385,8120
16365,8140
16139,7914
16042,7849
15927,7826
15633,7826
15633,2216
15623,1960
15544,1768
15439,1729
15368,1800
15368,1659
15329,1553
15089,1464
14833,1474
14641,1553
14602,1659
14985,2041
15368,1659
15368,1800
15056,2112
15439,2495
15544,2456
15633,2216
15633,7826
15368,7826
15368,2566
14985,2183
14914,2254
14914,2112
14531,1729
14426,1768
14337,2008
14347,2264
14426,2456
14531,2495
14914,2112
14914,2254
14602,2566
14641,2671
14881,2760
15137,2750
15329,2671
15368,2566
15368,7826
14728,7826
14728,5667
14676,5539
14578,5441
14450,5388
14311,5388
14263,5407
14251,5407
14251,1985
14153,1748
13972,1567
13736,1469
13480,1469
13243,1566
13062,1747
12964,1984
12963,2240
13061,2476
13242,2657
13478,2756
13734,2756
13971,2658
14152,2477
14250,2241
14251,1985
14251,5407
14081,5407
14081,5204
14043,5112
13973,5042
13881,5004
13781,5004
13309,5004
13217,5042
13147,5112
13109,5204
13109,5303
13109,6248
13147,6340
13217,6411
13309,6449
13409,6449
13881,6449
13973,6411
14043,6340
14081,6248
14081,6149
14081,6065
14263,6065
14310,6085
14449,6085
14577,6032
14675,5934
14728,5806
14728,5667
14728,7826
12663,7826
12663,6248
12663,6149
12663,5204
12625,5112
12555,5042
12463,5004
12363,5004
11891,5004
11799,5042
11729,5112
11691,5204
11691,5303
11691,5397
11415,5397
11415,5206
11377,5114
11307,5044
11215,5006
11115,5006
10643,5006
10551,5044
10481,5114
10443,5206
10443,5305
10443,6250
10481,6342
10551,6413
10643,6451
10743,6451
11215,6451
11307,6413
11377,6342
11415,6250
11415,6151
11415,6055
11691,6055
11691,6248
11729,6340
11799,6411
11891,6449
11991,6449
12463,6449
12555,6411
12625,6340
12663,6248
12663,7826
8443,7826
8443,4853
8443,4739
8381,4676
8046,4676
8046,4991
8109,5053
8143,5053
8243,5053
8335,5015
8405,4945
8443,4853
8443,7826
7946,7826
7946,4991
7946,4676
7612,4676
7549,4739
7549,4853
7587,4945
7657,5015
7749,5053
7849,5053
7884,5053
7946,4991
7946,7826
7480,7826
7525,7781
7578,7653
7578,7514
7526,7386
7428,7288
7300,7235
7161,7235
7033,7288
6935,7386
6903,7462
6739,7626
5954,7626
5954,6619
5902,6491
5804,6393
5676,6340
5537,6340
5409,6393
5311,6491
5258,6619
5258,6757
5292,6840
5223,6812
5085,6812
4957,6865
4859,6963
4805,7091
4805,7229
4858,7357
4956,7455
5084,7509
5223,7509
5351,7456
5449,7358
5502,7230
5502,7091
5468,7008
5536,7037
5675,7037
5803,6984
5901,6886
5954,6758
5954,6619
5954,7626
4156,7626
4041,7649
3967,7699
3967,7699
3966,7699
3940,7710
7549,4100
7549,4261
7578,4330
7549,4399
7549,4514
7612,4576
7946,4576
7946,4568
8046,4568
8046,4576
8381,4576
8443,4514
8443,4399
8414,4330
8443,4261
8443,4161
8443,3807
8405,3716
8335,3645
8325,3641
8325,3426
8410,3341
8682,3341
8798,3457
8991,3537
9182,3537
9182,5023
9133,5044
9063,5114
9025,5206
9025,5305
9025,6250
9063,6342
9133,6413
9225,6451
9325,6451
9797,6451
9889,6413
9959,6342
9997,6250
9997,6151
9997,5206
9959,5114
9889,5044
9840,5023
9840,3398
9898,3457
10091,3537
10300,3537
10493,3457
10610,3341
10882,3341
10998,3457
11191,3537
11400,3537
11593,3457
11741,3310
11821,3117
11821,2908
11741,2715
11594,2567
11461,2512
11593,2457
11741,2310
11821,2117
11821,1908
11741,1715
11594,1567
11521,1537
11521,1537
11621,1537
11713,1499
11783,1429
11821,1337
11821,1125
11759,1062
11346,1062
11346,1070
11246,1070
11246,1062
10834,1062
10771,1125
10771,1337
10809,1429
10879,1499
10971,1537
11071,1537
11071,1537
10999,1567
10851,1714
10771,1907
10771,2116
10851,2309
10998,2457
11131,2512
10999,2567
10882,2683
10610,2683
10494,2567
10361,2512
10493,2457
10641,2310
10721,2117
10721,1908
10641,1715
10494,1567
10421,1537
10421,1537
10521,1537
10613,1499
10683,1429
10721,1337
10721,1125
10659,1062
10246,1062
10246,1070
10146,1070
10146,1062
9734,1062
9671,1125
9671,1337
9709,1429
9779,1499
9871,1537
9971,1537
9971,1537
9899,1567
9751,1714
9671,1907
9671,2116
9751,2309
9898,2457
10031,2512
9899,2567
9782,2683
9510,2683
9394,2567
9261,2512
9393,2457
9541,2310
9621,2117
9621,1908
9541,1715
9394,1567
9321,1537
9321,1537
9421,1537
9513,1499
9583,1429
9621,1337
9621,1125
9559,1062
9146,1062
9146,1070
9046,1070
9046,1062
8634,1062
8571,1125
8571,1337
8609,1429
8679,1499
8771,1537
8871,1537
8871,1537
8799,1567
8651,1714
8571,1907
8571,2113
8488,2196
8521,2117
8521,1908
8441,1715
8294,1567
8221,1537
8221,1537
8321,1537
8413,1499
8483,1429
8521,1337
8521,1125
8459,1062
8046,1062
8046,1070
7946,1070
7946,1062
7534,1062
7471,1125
7471,1337
7509,1429
7579,1499
7671,1537
7771,1537
7771,1537
7699,1567
7551,1714
7471,1907
7471,2116
7475,2126
7444,2172
7430,2242
7430,2242
7159,2513
7094,2610
7071,2725
7071,3423
6093,4401
3182,7312
2564,7312
2564,7210
2559,7200
2564,7190
2564,7135
2983,7135
2983,7135
3098,7112
3098,7112
3196,7047
3835,6408
3900,6311
3909,6263
3918,6255
3971,6127
3971,5988
3918,5860
3820,5762
3692,5709
3553,5708
3550,5710
3471,5631
3343,5578
3204,5578
3076,5631
2985,5722
2899,5722
2771,5775
2673,5873
2624,5990
2564,6050
2564,6029
2559,6019
2564,6009
2564,5910
2564,5708
2597,5715
2715,5691
2816,5624
2883,5524
2906,5406
2883,5287
2816,5187
2670,5042
2570,4975
2521,4965
2564,4923
2564,4848
2559,4838
2564,4828
2564,4729
2564,4454
2559,4444
2564,4434
2564,4335
2564,4318
4237,4310
4228,3944
4238,3929
4238,3929
4238,3929
4276,3835
4276,3835
4301,3706
4301,3681
4306,3657
4306,2265
4317,2276
4361,2232
4481,2406
4963,2607
5486,2608
5968,2409
5973,2406
6093,2232
5227,1366
5221,1371
5151,1301
5156,1295
5151,1290
5221,1219
5227,1224
5233,1219
5303,1290
5298,1295
6164,2161
6338,2041
6539,1559
6540,1037
6341,554
6338,550
6252,490
7665,490
7579,525
7509,596
7471,687
7471,900
7534,962
7946,962
7946,954
8046,954
8046,962
8459,962
8521,900
8521,687
8483,596
8413,525
8327,490
8765,490
8679,525
8609,596
8571,687
8571,900
8634,962
9046,962
9046,954
9146,954
9146,962
9559,962
9621,900
9621,687
9583,596
9513,525
9427,490
9865,490
9779,525
9709,596
9671,687
9671,900
9734,962
10146,962
10146,954
10246,954
10246,962
10659,962
10721,900
10721,687
10683,596
10613,525
10527,490
10965,490
10879,525
10809,596
10771,687
10771,900
10834,962
11246,962
11246,954
11346,954
11346,962
11759,962
11821,900
11821,687
11783,596
11713,525
11627,490
25070,488
24981,550
24780,1032
24779,1554
24978,2037
24981,2041
25155,2161
26021,1295
26016,1290
26086,1219
26092,1224
26098,1219
26168,1290
26163,1295
26168,1301
26098,1371
26092,1366
25226,2232
25346,2406
25828,2607
26351,2608
26833,2409
26838,2406
26958,2232
26958,2232
27002,2276
27015,2264
27015,13711
" /> 
</g>
<g style="fill:#FFFFFF; fill-opacity:1.0; 
stroke:#FFFFFF; stroke-width:39.3701; stroke-opacity:1; 
stroke-linecap:round; stroke-linejoin:round;">
<circle cx="7230.5" cy="7583.64" r="39.3701" /> 
<circle cx="4035.5" cy="8047.64" r="39.3701" /> 
<circle cx="2762.5" cy="10383.6" r="39.3701" /> 
<circle cx="2806.5" cy="11167.6" r="39.3701" /> 
<circle cx="19306.5" cy="4838.64" r="39.3701" /> 
<circle cx="21482.5" cy="6292.96" r="39.3701" /> 
<circle cx="16374.5" cy="5326.64" r="39.3701" /> 
<circle cx="14380.5" cy="5736.64" r="39.3701" /> 
<circle cx="21869.2" cy="9950.2" r="39.3701" /> 
<circle cx="21892.2" cy="3811.07" r="39.3701" /> 
<circle cx="21856.8" cy="6393" r="39.3701" /> 
<circle cx="20222.8" cy="12277.1" r="39.3701" /> 
<circle cx="21862.5" cy="14387.6" r="105.315" /> 
<circle cx="20248.5" cy="6106.64" r="39.3701" /> 
<circle cx="21892.2" cy="12520.1" r="39.3701" /> 
<circle cx="20229" cy="9722.5" r="39.3701" /> 
<circle cx="22224.5" cy="1769.64" r="105.315" /> 
<circle cx="22886.5" cy="7720.64" r="39.3701" /> 
<circle cx="17094.5" cy="8643.64" r="39.3701" /> 
<circle cx="22854.5" cy="10346.6" r="39.3701" /> 
<circle cx="9362.5" cy="10461.1" r="39.3701" /> 
<circle cx="20881.5" cy="9067.64" r="39.3701" /> 
<circle cx="20996.5" cy="13312.6" r="39.3701" /> 
<circle cx="20891.5" cy="2747.64" r="39.3701" /> 
<circle cx="21001.5" cy="7002.64" r="39.3701" /> 
<circle cx="18256.5" cy="9709.64" r="39.3701" /> 
<circle cx="3273.5" cy="5926.64" r="39.3701" /> 
<circle cx="5606.5" cy="6688.64" r="39.3701" /> 
<circle cx="19042.5" cy="4062.64" r="39.3701" /> 
<circle cx="5154.31" cy="7160.65" r="39.3701" /> 
<circle cx="22852.5" cy="11484.6" r="39.3701" /> 
<circle cx="16390.5" cy="6924.64" r="39.3701" /> 
<circle cx="22859.9" cy="5696.75" r="39.3701" /> 
<circle cx="22720.5" cy="10022.6" r="39.3701" /> 
<circle cx="2968.5" cy="6070.64" r="39.3701" /> 
<circle cx="22886.5" cy="3820.64" r="39.3701" /> 
<circle cx="3622.98" cy="6057.45" r="39.3701" /> 
<circle cx="11518.5" cy="9195.64" r="39.3701" /> 
<circle cx="12229.5" cy="11213.6" r="39.3701" /> 
<circle cx="23152.1" cy="4645.9" r="39.3701" /> 
<circle cx="22794.5" cy="10678.6" r="39.3701" /> 
<circle cx="22745.6" cy="11775" r="39.3701" /> 
<circle cx="5398.5" cy="11102.6" r="39.3701" /> 
<circle cx="22785.7" cy="5389.59" r="39.3701" /> 
<circle cx="21783.1" cy="11898.1" r="39.3701" /> 
<circle cx="21827.5" cy="5358.64" r="39.3701" /> 
<circle cx="22960.5" cy="10962.6" r="39.3701" /> 
<circle cx="13784.6" cy="10861.1" r="39.3701" /> 
<circle cx="23332.5" cy="4106.64" r="39.3701" /> 
<circle cx="13352.5" cy="8798.64" r="39.3701" /> 
<circle cx="15298.5" cy="8994.64" r="39.3701" /> 
<circle cx="22888.5" cy="4876.64" r="39.3701" /> 
<circle cx="21504.5" cy="7690.64" r="39.3701" /> 
<circle cx="16900.5" cy="7608.64" r="39.3701" /> 
<circle cx="15948.5" cy="8544.64" r="39.3701" /> 
<circle cx="2880.5" cy="7976.64" r="39.3701" /> 
<circle cx="19338.5" cy="3806.64" r="39.3701" /> 
<circle cx="16582.5" cy="8415.64" r="39.3701" /> 
<circle cx="19362.5" cy="11132.2" r="39.3701" /> 
<circle cx="21376.5" cy="12443" r="39.3701" /> 
<circle cx="18709.5" cy="9215.64" r="39.3701" /> 
<circle cx="25371.5" cy="10187.6" r="180.315" /> 
<circle cx="25371.5" cy="11187.6" r="180.315" /> 
<circle cx="25371.5" cy="12187.6" r="180.315" /> 
<circle cx="25371.5" cy="13187.6" r="180.315" /> 
<circle cx="25321.5" cy="3287.64" r="180.315" /> 
<circle cx="25321.5" cy="4287.64" r="180.315" /> 
<circle cx="25321.5" cy="5287.64" r="180.315" /> 
<circle cx="25321.5" cy="6287.64" r="180.315" /> 
<circle cx="13607.5" cy="2112.64" r="216.315" /> 
<circle cx="14985.5" cy="2112.64" r="216.315" /> 
<circle cx="5227.5" cy="14679.6" r="570.815" /> 
<circle cx="26092.5" cy="14679.6" r="570.815" /> 
<circle cx="5227.5" cy="1295.64" r="570.815" /> 
<circle cx="26092.5" cy="1295.64" r="570.815" /> 
<circle cx="7996.5" cy="1012.64" r="140.315" /> 
<circle cx="7996.5" cy="2012.64" r="140.315" /> 
<circle cx="7996.5" cy="3012.64" r="140.315" /> 
<circle cx="9096.5" cy="1012.64" r="140.315" /> 
<circle cx="9096.5" cy="2012.64" r="140.315" /> 
<circle cx="9096.5" cy="3012.64" r="140.315" /> 
<circle cx="10196.5" cy="1012.64" r="140.315" /> 
<circle cx="10196.5" cy="2012.64" r="140.315" /> 
<circle cx="10196.5" cy="3012.64" r="140.315" /> 
<circle cx="11296.5" cy="1012.64" r="140.315" /> 
<circle cx="11296.5" cy="2012.64" r="140.315" /> 
<circle cx="11296.5" cy="3012.64" r="140.315" /> 
<circle cx="25346.5" cy="7737.64" r="180.315" /> 
<circle cx="25346.5" cy="8737.64" r="180.315" /> 
<circle cx="21297.9" cy="4709.18" r="39.3701" /> 
<circle cx="21297.9" cy="5220.99" r="39.3701" /> 
<circle cx="20786.1" cy="4709.18" r="39.3701" /> 
<circle cx="20786.1" cy="5220.99" r="39.3701" /> 
<circle cx="21042" cy="4965.09" r="39.3701" /> 
<circle cx="21297.9" cy="10859.2" r="39.3701" /> 
<circle cx="21297.9" cy="11371" r="39.3701" /> 
<circle cx="20786.1" cy="10859.2" r="39.3701" /> 
<circle cx="20786.1" cy="11371" r="39.3701" /> 
<circle cx="21042" cy="11115.1" r="39.3701" /> 
</g> 
</svg>
